# Blender 3.3.1
# www.blender.org
mtllib frontWall.mtl
o Plane.001
v -3.781387 -0.156319 -4.100446
v 3.809929 -0.156319 -4.100446
v -3.781387 3.375124 -4.100446
v 3.809929 3.375124 -4.100446
v -0.707455 -0.156319 -4.100446
v -0.707455 3.375124 -4.100446
v 0.735801 -0.156319 -4.100446
v 0.735801 3.375124 -4.100446
v -3.781387 2.467468 -4.100446
v 3.809929 2.467468 -4.100446
v -0.707455 2.467468 -4.100446
v 0.735801 2.467468 -4.100446
v -3.781387 0.358773 -4.100446
v 3.809929 0.358773 -4.100446
v -0.707455 0.358773 -4.100446
v 0.735801 0.358773 -4.100446
v -3.781387 -0.156319 -4.193778
v 3.809929 -0.156319 -4.193778
v -3.781387 3.375124 -4.193778
v 3.809929 3.375124 -4.193778
v -0.707455 -0.156319 -4.193778
v -0.707455 3.375124 -4.193778
v 0.735801 -0.156319 -4.193778
v 0.735801 3.375124 -4.193778
v -3.781387 2.467468 -4.193778
v 3.809929 2.467468 -4.193778
v -0.707455 2.467468 -4.193778
v 0.735801 2.467468 -4.193778
v -3.781387 0.358773 -4.193778
v 3.809929 0.358773 -4.193778
v -0.707455 0.358773 -4.193778
v 0.735801 0.358773 -4.193778
vn -0.0000 -0.0000 1.0000
vn -0.0000 -0.0000 -1.0000
vn -0.0000 -1.0000 -0.0000
vn 1.0000 -0.0000 -0.0000
vn -0.0000 1.0000 -0.0000
vn -1.0000 -0.0000 -0.0000
vt 0.000000 0.000000
vt 1.000000 0.000000
vt 0.000000 1.000000
vt 1.000000 1.000000
vt 0.404927 0.000000
vt 0.404927 1.000000
vt 0.595047 0.000000
vt 0.595047 1.000000
vt 0.000000 0.742979
vt 1.000000 0.742979
vt 0.404927 0.742979
vt 0.595047 0.742979
vt 0.000000 0.145859
vt 1.000000 0.145859
vt 0.404927 0.145859
vt 0.595047 0.145859
vt 0.000000 0.000000
vt 1.000000 0.000000
vt 0.000000 1.000000
vt 1.000000 1.000000
vt 0.404927 0.000000
vt 0.404927 1.000000
vt 0.595047 0.000000
vt 0.595047 1.000000
vt 0.000000 0.742979
vt 1.000000 0.742979
vt 0.404927 0.742979
vt 0.595047 0.742979
vt 0.000000 0.145859
vt 1.000000 0.145859
vt 0.404927 0.145859
vt 0.595047 0.145859
s 0
usemtl æè´¨
f 12/12/1 10/10/1 4/4/1 8/8/1
f 9/9/1 11/11/1 6/6/1 3/3/1
f 11/11/1 12/12/1 8/8/1 6/6/1
f 13/13/1 15/15/1 11/11/1 9/9/1
f 16/16/1 14/14/1 10/10/1 12/12/1
f 7/7/1 2/2/1 14/14/1 16/16/1
f 1/1/1 5/5/1 15/15/1 13/13/1
f 5/5/1 7/7/1 16/16/1 15/15/1
f 28/28/2 24/24/2 20/20/2 26/26/2
f 25/25/2 19/19/2 22/22/2 27/27/2
f 27/27/2 22/22/2 24/24/2 28/28/2
f 29/29/2 25/25/2 27/27/2 31/31/2
f 32/32/2 28/28/2 26/26/2 30/30/2
f 23/23/2 32/32/2 30/30/2 18/18/2
f 17/17/2 29/29/2 31/31/2 21/21/2
f 21/21/2 31/31/2 32/32/2 23/23/2
f 1/1/3 17/17/3 21/21/3 5/5/3
f 15/15/4 31/31/4 27/27/4 11/11/4
f 8/8/5 24/24/5 22/22/5 6/6/5
f 12/12/6 28/28/6 32/32/6 16/16/6
f 11/11/3 27/27/3 28/28/3 12/12/3
f 5/5/3 21/21/3 23/23/3 7/7/3
f 13/13/6 29/29/6 17/17/6 1/1/6
f 4/4/5 20/20/5 24/24/5 8/8/5
f 16/16/5 32/32/5 31/31/5 15/15/5
f 7/7/3 23/23/3 18/18/3 2/2/3
f 10/10/4 26/26/4 20/20/4 4/4/4
f 9/9/6 25/25/6 29/29/6 13/13/6
f 3/3/6 19/19/6 25/25/6 9/9/6
f 6/6/5 22/22/5 19/19/5 3/3/5
f 2/2/4 18/18/4 30/30/4 14/14/4
f 14/14/4 30/30/4 26/26/4 10/10/4
