# Blender 3.3.1
# www.blender.org
mtllib glasses.mtl
o leftglass
v 0.003108 0.383560 -4.102564
v -0.707327 0.383560 -4.101905
v -0.707327 2.431749 -4.101905
v 0.003108 2.431749 -4.102564
vn 0.0009 -0.0000 1.0000
vt 0.9999 0.0001
vt 0.0001 0.0001
vt 0.0001 0.9999
vt 0.9999 0.9999
s 1
usemtl Material.076
f 1/1/1 3/3/1 2/2/1
f 1/1/1 4/4/1 3/3/1
o rightglass
v 0.026892 0.383560 -4.102564
v 0.737327 0.383560 -4.101905
v 0.737327 2.431749 -4.101905
v 0.026892 2.431749 -4.102564
vn -0.0009 -0.0000 1.0000
vt 0.9999 0.0001
vt 0.0001 0.0001
vt 0.0001 0.9999
vt 0.9999 0.9999
s 1
usemtl Material.090
f 5/5/2 6/6/2 7/7/2
f 5/5/2 7/7/2 8/8/2
